<?xml version="1.0" standalone="no"?><!DOCTYPE svg PUBLIC "-//W3C//DTD SVG 1.1//EN"
        "http://www.w3.org/Graphics/SVG/1.1/DTD/svg11.dtd">
<svg class="icon" width="200px" height="200.00px" viewBox="0 0 1024 1024" version="1.1"
     xmlns="http://www.w3.org/2000/svg">
    <path d="M926.3 337.9c-22.6-53.3-54.8-101.2-96-142.3-41.1-41.1-89-73.4-142.3-96-55.2-23.4-113.9-35.2-174.3-35.2S394.6 76.2 339.3 99.6c-53.3 22.6-101.2 54.8-142.3 96-41.1 41.1-73.4 89-96 142.3-23.4 55.2-35.2 113.9-35.2 174.3 0 60.4 11.8 119.1 35.2 174.3 22.6 53.3 54.8 101.2 96 142.3 41.1 41.1 89 73.4 142.3 96 55.2 23.4 113.9 35.2 174.3 35.2s119.1-11.8 174.3-35.2c53.3-22.6 101.2-54.8 142.3-96 41.1-41.1 73.4-89 96-142.3 23.4-55.2 35.2-113.9 35.2-174.3 0.1-60.4-11.8-119.1-35.1-174.3zM513.7 879.1c-202.3 0-366.9-164.6-366.9-366.9s164.6-366.9 366.9-366.9c202.3 0 366.9 164.6 366.9 366.9S716 879.1 513.7 879.1z"/>
    <path d="M697.9 329.1c-15.6-15.6-41-15.6-56.6 0L513 457.4 384.7 329.1c-15.6-15.6-41-15.6-56.6 0-15.6 15.6-15.6 41 0 56.6L456.4 514 328.1 642.3c-15.6 15.6-15.6 41 0 56.6 15.6 15.6 41 15.6 56.6 0L513 570.6l128.3 128.3c15.6 15.6 41 15.6 56.6 0 15.6-15.6 15.6-41 0-56.6L569.6 514l128.3-128.3c15.6-15.6 15.6-41.1 0-56.6z"/>
</svg>