<?xml version="1.0" standalone="no"?><!DOCTYPE svg PUBLIC "-//W3C//DTD SVG 1.1//EN"
        "http://www.w3.org/Graphics/SVG/1.1/DTD/svg11.dtd">
<svg class="icon" width="200px" height="200.00px" viewBox="0 0 1024 1024" version="1.1"
     xmlns="http://www.w3.org/2000/svg">
    <path d="M923.4 339.2c-22.6-53.3-54.8-101.2-96-142.3-41.1-41.1-89-73.4-142.3-96-55.2-23.4-113.8-35.2-174.3-35.2s-119.1 11.8-174.3 35.2c-53.3 22.6-101.2 54.8-142.3 96-41.1 41.1-73.4 89-96 142.3C74.8 394.4 63 453.1 63 513.5s11.8 119.1 35.2 174.3c22.6 53.3 54.8 101.2 96 142.3 41.1 41.1 89 73.4 142.3 96 55.2 23.4 113.9 35.2 174.3 35.2 60.4 0 119.1-11.8 174.3-35.2 53.3-22.6 101.2-54.8 142.3-96 41.1-41.1 73.4-89 96-142.3 23.4-55.2 35.2-113.9 35.2-174.3 0-60.4-11.8-119.1-35.2-174.3zM510.8 880.4c-202.3 0-366.9-164.6-366.9-366.9s164.6-366.9 366.9-366.9 366.9 164.6 366.9 366.9-164.5 366.9-366.9 366.9z"/>
    <path d="M604.4 555.3c15.4-24.4 24.3-53.2 24.3-84.1 0-87.1-70.9-158-158-158s-158 70.9-158 158 70.9 158 158 158c28.5 0 55.3-7.6 78.4-20.9l94.5 94.5c14.9 14.9 39.2 14.9 54.1 0 14.9-14.9 14.9-39.2 0-54.1l-93.3-93.4z m-133.6-2.2c-45.2 0-82-36.8-82-82s36.8-82 82-82 82 36.8 82 82-36.8 82-82 82z"/>
</svg>